name ./resultDataOpenSim/trcMotMarkerGrf/sub09/grf-04-02.mot
datacolumns 19
datarows 22
range 0.49200000 0.57600000
endheader

                time	     ground_force_vx	     ground_force_vy	     ground_force_vz	     ground_force_px	     ground_force_py	     ground_force_pz	   l_ground_force_vx	   l_ground_force_vy	   l_ground_force_vz	   l_ground_force_px	   l_ground_force_py	   l_ground_force_pz	     ground_torque_x	     ground_torque_y	     ground_torque_z	   l_ground_torque_x	   l_ground_torque_y	   l_ground_torque_z	
          0.49200000	         35.08122468	        368.61943007	         -9.88099646	         -0.66346433	          0.00000000	          0.10539883	          0.00000000	          0.00000000	          0.00000000	          0.00000000	          0.00000000	          0.00000000	          0.00000000	          6.41076059	          0.00000000	          0.00000000	          0.00000000	          0.00000000	
          0.49600000	         35.46592875	        376.10867758	        -10.13397765	         -0.66259487	          0.00000000	          0.10582713	          0.00000000	          0.00000000	          0.00000000	          0.00000000	          0.00000000	          0.00000000	          0.00000000	          6.70031922	          0.00000000	          0.00000000	          0.00000000	          0.00000000	
          0.50000000	         35.48760018	        384.85014511	        -11.08002205	         -0.66145840	          0.00000000	          0.10629662	          0.00000000	          0.00000000	          0.00000000	          0.00000000	          0.00000000	          0.00000000	          0.00000000	          6.89019479	          0.00000000	          0.00000000	          0.00000000	          0.00000000	
          0.50400000	         35.27603688	        394.69469355	        -12.74229624	         -0.66007826	          0.00000000	          0.10681419	          0.00000000	          0.00000000	          0.00000000	          0.00000000	          0.00000000	          0.00000000	          0.00000000	          6.97361374	          0.00000000	          0.00000000	          0.00000000	          0.00000000	
          0.50800000	         34.95965197	        405.48598480	        -15.05897212	         -0.65852289	          0.00000000	          0.10738262	          0.00000000	          0.00000000	          0.00000000	          0.00000000	          0.00000000	          0.00000000	          0.00000000	          6.95823196	          0.00000000	          0.00000000	          0.00000000	          0.00000000	
          0.51200000	         34.66203414	        417.09140213	        -17.90029604	         -0.65687814	          0.00000000	          0.10799695	          0.00000000	          0.00000000	          0.00000000	          0.00000000	          0.00000000	          0.00000000	          0.00000000	          6.86233679	          0.00000000	          0.00000000	          0.00000000	          0.00000000	
          0.51600000	         34.50577708	        429.40573832	        -21.09914842	         -0.65523361	          0.00000000	          0.10863511	          0.00000000	          0.00000000	          0.00000000	          0.00000000	          0.00000000	          0.00000000	          0.00000000	          6.70937307	          0.00000000	          0.00000000	          0.00000000	          0.00000000	
          0.52000000	         34.61482081	        442.32809496	        -24.48511842	         -0.65365249	          0.00000000	          0.10926636	          0.00000000	          0.00000000	          0.00000000	          0.00000000	          0.00000000	          0.00000000	          0.00000000	          6.52242053	          0.00000000	          0.00000000	          0.00000000	          0.00000000	
          0.52400000	         35.11017775	        455.74464884	        -27.90521112	         -0.65215916	          0.00000000	          0.10986138	          0.00000000	          0.00000000	          0.00000000	          0.00000000	          0.00000000	          0.00000000	          0.00000000	          6.31996936	          0.00000000	          0.00000000	          0.00000000	          0.00000000	
          0.52800000	         36.10107114	        469.54302761	        -31.22437048	         -0.65073927	          0.00000000	          0.11039076	          0.00000000	          0.00000000	          0.00000000	          0.00000000	          0.00000000	          0.00000000	          0.00000000	          6.11384049	          0.00000000	          0.00000000	          0.00000000	          0.00000000	
          0.53200000	         37.67615034	        483.63903815	        -34.31349587	         -0.64938496	          0.00000000	          0.11082025	          0.00000000	          0.00000000	          0.00000000	          0.00000000	          0.00000000	          0.00000000	          0.00000000	          5.90952545	          0.00000000	          0.00000000	          0.00000000	          0.00000000	
          0.53600000	         39.89814745	        497.98638520	        -37.03930128	         -0.64810494	          0.00000000	          0.11110904	          0.00000000	          0.00000000	          0.00000000	          0.00000000	          0.00000000	          0.00000000	          0.00000000	          5.70863328	          0.00000000	          0.00000000	          0.00000000	          0.00000000	
          0.54000000	         42.80414572	        512.57058995	        -39.27087427	         -0.64690606	          0.00000000	          0.11121993	          0.00000000	          0.00000000	          0.00000000	          0.00000000	          0.00000000	          0.00000000	          0.00000000	          5.51259849	          0.00000000	          0.00000000	          0.00000000	          0.00000000	
          0.54400000	         46.41177485	        527.39822047	        -40.90050401	         -0.64578544	          0.00000000	          0.11113096	          0.00000000	          0.00000000	          0.00000000	          0.00000000	          0.00000000	          0.00000000	          0.00000000	          5.32642656	          0.00000000	          0.00000000	          0.00000000	          0.00000000	
          0.54800000	         50.72380060	        542.48611620	        -41.85423204	         -0.64473712	          0.00000000	          0.11084274	          0.00000000	          0.00000000	          0.00000000	          0.00000000	          0.00000000	          0.00000000	          0.00000000	          5.16115039	          0.00000000	          0.00000000	          0.00000000	          0.00000000	
          0.55200000	         55.72427353	        557.85329414	        -42.08265939	         -0.64375595	          0.00000000	          0.11037423	          0.00000000	          0.00000000	          0.00000000	          0.00000000	          0.00000000	          0.00000000	          0.00000000	          5.03394501	          0.00000000	          0.00000000	          0.00000000	          0.00000000	
          0.55600000	         61.37218033	        573.51337081	        -41.55529992	         -0.64283803	          0.00000000	          0.10975497	          0.00000000	          0.00000000	          0.00000000	          0.00000000	          0.00000000	          0.00000000	          0.00000000	          4.96552909	          0.00000000	          0.00000000	          0.00000000	          0.00000000	
          0.56000000	         67.60311906	        589.46158643	        -40.27351369	         -0.64198633	          0.00000000	          0.10902078	          0.00000000	          0.00000000	          0.00000000	          0.00000000	          0.00000000	          0.00000000	          0.00000000	          4.97541187	          0.00000000	          0.00000000	          0.00000000	          0.00000000	
          0.56400000	         74.34089968	        605.65396064	        -38.28604609	         -0.64121014	          0.00000000	          0.10821173	          0.00000000	          0.00000000	          0.00000000	          0.00000000	          0.00000000	          0.00000000	          0.00000000	          5.07634224	          0.00000000	          0.00000000	          0.00000000	          0.00000000	
          0.56800000	         81.51035551	        621.99013438	        -35.69422313	         -0.64051277	          0.00000000	          0.10736906	          0.00000000	          0.00000000	          0.00000000	          0.00000000	          0.00000000	          0.00000000	          0.00000000	          5.26959800	          0.00000000	          0.00000000	          0.00000000	          0.00000000	
          0.57200000	         89.04554105	        638.31519221	        -32.65509163	         -0.63988592	          0.00000000	          0.10652992	          0.00000000	          0.00000000	          0.00000000	          0.00000000	          0.00000000	          0.00000000	          0.00000000	          5.54243434	          0.00000000	          0.00000000	          0.00000000	          0.00000000	
          0.57600000	         96.89620984	        654.42952185	        -29.38459865	         -0.63931685	          0.00000000	          0.10572474	          0.00000000	          0.00000000	          0.00000000	          0.00000000	          0.00000000	          0.00000000	          0.00000000	          5.86835894	          0.00000000	          0.00000000	          0.00000000	          0.00000000	
